<svg width="23" height="21" viewBox="0 0 23 21" fill="none" xmlns="http://www.w3.org/2000/svg">
<path d="M21.9394 6.76268H19.3641L15.4986 0.959181C15.3448 0.72865 15.1058 0.56865 14.834 0.514379C14.5623 0.460107 14.2801 0.51601 14.0496 0.66979C13.819 0.82357 13.659 1.06263 13.6048 1.33438C13.5505 1.60613 13.6064 1.8883 13.7602 2.11884L16.8536 6.76268H6.13049L9.22708 2.11884C9.38086 1.8883 9.43676 1.60613 9.38249 1.33438C9.32822 1.06263 9.16822 0.82357 8.93769 0.66979C8.70716 0.51601 8.42498 0.460107 8.15323 0.514379C7.88149 0.56865 7.64243 0.72865 7.48865 0.959181L3.62 6.76268H1.04473C0.767653 6.76268 0.501921 6.87275 0.305995 7.06867C0.11007 7.2646 0 7.53033 0 7.80741C0 8.08449 0.11007 8.35022 0.305995 8.54615C0.501921 8.74207 0.767653 8.85214 1.04473 8.85214H2.08947V17.21C2.08947 18.0413 2.41968 18.8384 3.00745 19.4262C3.59523 20.014 4.39242 20.3442 5.22367 20.3442H17.7605C18.5917 20.3442 19.3889 20.014 19.9767 19.4262C20.5645 18.8384 20.8947 18.0413 20.8947 17.21V8.85214H21.9394C22.2165 8.85214 22.4822 8.74207 22.6781 8.54615C22.8741 8.35022 22.9841 8.08449 22.9841 7.80741C22.9841 7.53033 22.8741 7.2646 22.6781 7.06867C22.4822 6.87275 22.2165 6.76268 21.9394 6.76268ZM18.8052 17.21C18.8052 17.4871 18.6951 17.7528 18.4992 17.9487C18.3033 18.1447 18.0375 18.2547 17.7605 18.2547H5.22367C4.94658 18.2547 4.68085 18.1447 4.48493 17.9487C4.289 17.7528 4.17893 17.4871 4.17893 17.21V8.85214H18.8052V17.21Z" fill="#EA3B32"/>
<path d="M7.31231 16.6873C7.58939 16.6873 7.85512 16.5773 8.05105 16.3814C8.24697 16.1854 8.35704 15.9197 8.35704 15.6426V11.4637C8.35704 11.1866 8.24697 10.9209 8.05105 10.7249C7.85512 10.529 7.58939 10.4189 7.31231 10.4189C7.03523 10.4189 6.7695 10.529 6.57357 10.7249C6.37765 10.9209 6.26758 11.1866 6.26758 11.4637V15.6426C6.26758 15.9197 6.37765 16.1854 6.57357 16.3814C6.7695 16.5773 7.03523 16.6873 7.31231 16.6873Z" fill="#EA3B32"/>
<path d="M11.492 16.6873C11.7691 16.6873 12.0348 16.5773 12.2307 16.3814C12.4267 16.1854 12.5367 15.9197 12.5367 15.6426V11.4637C12.5367 11.1866 12.4267 10.9209 12.2307 10.7249C12.0348 10.529 11.7691 10.4189 11.492 10.4189C11.2149 10.4189 10.9492 10.529 10.7533 10.7249C10.5573 10.9209 10.4473 11.1866 10.4473 11.4637V15.6426C10.4473 15.9197 10.5573 16.1854 10.7533 16.3814C10.9492 16.5773 11.2149 16.6873 11.492 16.6873Z" fill="#EA3B32"/>
<path d="M15.6707 16.6873C15.9478 16.6873 16.2135 16.5773 16.4095 16.3814C16.6054 16.1854 16.7155 15.9197 16.7155 15.6426V11.4637C16.7155 11.1866 16.6054 10.9209 16.4095 10.7249C16.2135 10.529 15.9478 10.4189 15.6707 10.4189C15.3936 10.4189 15.1279 10.529 14.932 10.7249C14.736 10.9209 14.626 11.1866 14.626 11.4637V15.6426C14.626 15.9197 14.736 16.1854 14.932 16.3814C15.1279 16.5773 15.3936 16.6873 15.6707 16.6873Z" fill="#EA3B32"/>
</svg>
