<svg width="19" height="17" viewBox="0 0 19 17" fill="none" xmlns="http://www.w3.org/2000/svg">
<path d="M17.3521 5.85917H15.3491L12.3426 1.34534C12.223 1.16604 12.037 1.04159 11.8257 0.999383C11.6143 0.957172 11.3948 1.00065 11.2155 1.12026C11.0362 1.23987 10.9118 1.4258 10.8696 1.63716C10.8274 1.84852 10.8708 2.06799 10.9904 2.24729L13.3965 5.85917H5.05625L7.46471 2.24729C7.58431 2.06799 7.62779 1.84852 7.58558 1.63716C7.54337 1.4258 7.41893 1.23987 7.23962 1.12026C7.06032 1.00065 6.84085 0.957172 6.62949 0.999383C6.41813 1.04159 6.2322 1.16604 6.11259 1.34534L3.10364 5.85917H1.10066C0.885149 5.85917 0.678469 5.94478 0.526082 6.09717C0.373696 6.24955 0.288086 6.45623 0.288086 6.67174C0.288086 6.88725 0.373696 7.09393 0.526082 7.24632C0.678469 7.3987 0.885149 7.48431 1.10066 7.48431H1.91323V13.9849C1.91323 14.6314 2.17006 15.2514 2.62722 15.7086C3.08437 16.1658 3.70442 16.4226 4.35094 16.4226H14.1018C14.7483 16.4226 15.3683 16.1658 15.8255 15.7086C16.2827 15.2514 16.5395 14.6314 16.5395 13.9849V7.48431H17.3521C17.5676 7.48431 17.7742 7.3987 17.9266 7.24632C18.079 7.09393 18.1646 6.88725 18.1646 6.67174C18.1646 6.45623 18.079 6.24955 17.9266 6.09717C17.7742 5.94478 17.5676 5.85917 17.3521 5.85917ZM14.9143 13.9849C14.9143 14.2004 14.8287 14.4071 14.6764 14.5595C14.524 14.7118 14.3173 14.7974 14.1018 14.7974H4.35094C4.13543 14.7974 3.92875 14.7118 3.77636 14.5595C3.62398 14.4071 3.53837 14.2004 3.53837 13.9849V7.48431H14.9143V13.9849Z" fill="white"/>
<path d="M5.97566 13.5784C6.19116 13.5784 6.39784 13.4928 6.55023 13.3404C6.70261 13.188 6.78822 12.9814 6.78822 12.7659V9.51557C6.78822 9.30007 6.70261 9.09339 6.55023 8.941C6.39784 8.78861 6.19116 8.703 5.97566 8.703C5.76015 8.703 5.55347 8.78861 5.40108 8.941C5.2487 9.09339 5.16309 9.30007 5.16309 9.51557V12.7659C5.16309 12.9814 5.2487 13.188 5.40108 13.3404C5.55347 13.4928 5.76015 13.5784 5.97566 13.5784Z" fill="white"/>
<path d="M9.22664 13.5784C9.44215 13.5784 9.64883 13.4928 9.80121 13.3404C9.9536 13.188 10.0392 12.9814 10.0392 12.7659V9.51557C10.0392 9.30007 9.9536 9.09339 9.80121 8.941C9.64883 8.78861 9.44215 8.703 9.22664 8.703C9.01113 8.703 8.80445 8.78861 8.65206 8.941C8.49967 9.09339 8.41406 9.30007 8.41406 9.51557V12.7659C8.41406 12.9814 8.49967 13.188 8.65206 13.3404C8.80445 13.4928 9.01113 13.5784 9.22664 13.5784Z" fill="white"/>
<path d="M12.4766 13.5784C12.6921 13.5784 12.8988 13.4928 13.0512 13.3404C13.2036 13.188 13.2892 12.9814 13.2892 12.7659V9.51557C13.2892 9.30007 13.2036 9.09339 13.0512 8.941C12.8988 8.78861 12.6921 8.703 12.4766 8.703C12.2611 8.703 12.0544 8.78861 11.9021 8.941C11.7497 9.09339 11.6641 9.30007 11.6641 9.51557V12.7659C11.6641 12.9814 11.7497 13.188 11.9021 13.3404C12.0544 13.4928 12.2611 13.5784 12.4766 13.5784Z" fill="white"/>
</svg>
