<svg width="16" height="16" viewBox="0 0 16 16" fill="none" xmlns="http://www.w3.org/2000/svg">
<path d="M9.07051 10.9786C9.04947 10.9678 9.02818 10.9571 9.00673 10.9462C8.90042 10.8924 8.7901 10.8367 8.68582 10.7688M9.07051 10.9786L5.87643 8.20999C6.75073 9.28829 7.67165 10.1247 8.68582 10.7688M9.07051 10.9786C9.18708 11.0369 9.29491 11.0922 9.39109 11.1534L9.07051 10.9786ZM8.68582 10.7688L8.63126 10.8526C8.63141 10.8527 8.63157 10.8528 8.63172 10.8529M8.68582 10.7688L8.63222 10.8532C8.63205 10.8531 8.63189 10.853 8.63172 10.8529M8.63172 10.8529C7.60742 10.2023 6.67877 9.35833 5.79876 8.27297L5.79816 8.27224L5.79816 8.27224C5.30721 7.65487 4.98997 7.13402 4.76119 6.58435L4.75839 6.57763L4.75864 6.57755L4.75629 6.57141C4.75488 6.56788 4.7524 6.56173 4.7499 6.55423C4.71891 6.46126 4.68967 6.34336 4.70581 6.21206C4.72226 6.0782 4.78459 5.9401 4.91977 5.80492L4.98766 5.87281L4.91977 5.80492L4.93434 5.79035L4.93864 5.78606L4.93876 5.78619C5.19482 5.55948 5.42879 5.32279 5.67763 5.07107C5.69776 5.05071 5.71798 5.03025 5.73832 5.0097L5.73869 5.00932C5.78353 4.96448 5.82842 4.91886 5.87365 4.87291L5.87376 4.87279C5.91885 4.82698 5.96426 4.78084 6.00972 4.73537C6.17989 4.5652 6.25438 4.40554 6.25438 4.26111C6.25438 4.11668 6.17989 3.95701 6.00972 3.78684L5.14126 2.91838L5.14026 2.91739L5.14027 2.91738C5.08991 2.86558 5.03952 2.81446 4.9892 2.76341L4.98812 2.76232C4.93761 2.71108 4.88716 2.65991 4.8374 2.60868C4.81101 2.5819 4.78492 2.55538 4.75907 2.5291C4.59008 2.35727 4.43136 2.19588 4.26393 2.04095L4.26045 2.03772L4.26053 2.03764C4.10785 1.88229 3.95144 1.81401 3.80728 1.81401C3.65906 1.81401 3.49646 1.88332 3.34112 2.03306L2.25763 3.11655C1.99473 3.37945 1.85617 3.68085 1.82319 4.04517C1.77821 4.61143 1.88746 5.24011 2.1844 6.0329L2.18452 6.03323C2.66358 7.32613 3.38854 8.53458 4.46979 9.83617C5.78097 11.405 7.36087 12.6404 9.1605 13.5114C9.82562 13.8279 10.6997 14.1936 11.6353 14.2535C11.685 14.2565 11.7347 14.2592 11.7808 14.2592C12.2695 14.2592 12.6412 14.1012 12.956 13.7626C13.1409 13.5416 13.3438 13.3447 13.5361 13.158C13.5476 13.1468 13.5591 13.1357 13.5705 13.1246L13.571 13.1241C13.7076 12.9933 13.8342 12.8696 13.9546 12.7405L13.9556 12.7395C14.1224 12.5659 14.1954 12.4019 14.1966 12.251C14.1978 12.1009 14.128 11.943 13.9658 11.7808L12.2085 10.0264L12.2058 10.0238L12.2059 10.0237C12.0994 9.90902 11.9435 9.79629 11.7633 9.79629C11.6173 9.79629 11.4577 9.8694 11.3007 10.0264L10.2108 11.1163C10.1594 11.1677 9.9824 11.3438 9.70583 11.3438C9.59513 11.3438 9.48644 11.3159 9.37784 11.2601M8.63172 10.8529L9.37784 11.2601M8.63172 10.8529C8.74087 10.9239 8.85678 10.9825 8.96296 11.0361C8.98406 11.0468 9.00477 11.0573 9.02496 11.0676L9.02579 11.068C9.14249 11.1264 9.24608 11.1797 9.3374 11.2378L9.33711 11.2383L9.34636 11.2429C9.34937 11.2444 9.35219 11.246 9.3575 11.249C9.35999 11.2504 9.36313 11.2522 9.36676 11.2542C9.37008 11.2561 9.37382 11.2581 9.37784 11.2601M8.63172 10.8529L9.37784 11.2601M9.37784 11.2601C9.37768 11.26 9.37751 11.2599 9.37735 11.2598L9.42314 11.1709L9.37842 11.2604C9.37823 11.2603 9.37803 11.2602 9.37784 11.2601ZM3.76247 10.4131L3.76263 10.4133C5.15879 12.0822 6.83991 13.3967 8.75878 14.3268L8.75957 14.3271C9.48758 14.6721 10.4723 15.0872 11.5733 15.1584L11.5733 15.1584L11.5754 15.1585L11.5842 15.1589C11.6477 15.1617 11.7114 15.1644 11.7779 15.1644C12.5295 15.1644 13.1388 14.9035 13.6332 14.3677C13.6362 14.3647 13.6457 14.3551 13.6545 14.342C13.8072 14.1584 13.9795 13.9913 14.1648 13.8116C14.1781 13.7986 14.1915 13.7856 14.205 13.7725C14.3424 13.641 14.4833 13.503 14.6187 13.3617C14.9439 13.0228 15.1121 12.6316 15.1113 12.237C15.1105 11.8421 14.9405 11.4556 14.6114 11.1264L12.8605 9.37558C12.5475 9.05065 12.1673 8.87354 11.7633 8.87354C11.3593 8.87354 10.9764 9.05075 10.6551 9.37204L9.66531 10.3618C9.58843 10.3199 9.51154 10.2815 9.43988 10.2457L9.43872 10.2451C9.32203 10.1867 9.21843 10.1334 9.12712 10.0753L9.12703 10.0752C8.18759 9.47873 7.33291 8.69972 6.51397 7.69568C6.12119 7.19846 5.85397 6.78052 5.66477 6.36155C5.92114 6.12646 6.16211 5.88254 6.39385 5.64535L6.39418 5.645C6.48094 5.55535 6.5707 5.46559 6.66115 5.37514C6.99037 5.04592 7.17421 4.65741 7.17421 4.25528C7.17421 3.85357 6.99364 3.46493 6.66098 3.13525C6.66093 3.1352 6.66087 3.13515 6.66082 3.13509L5.79269 2.26696C5.69397 2.16824 5.60069 2.07222 5.50431 1.97299L5.49647 1.96493C5.3043 1.76694 5.10202 1.56168 4.9021 1.3764C4.58607 1.06693 4.20951 0.9 3.80728 0.9C3.40736 0.9 3.02801 1.0674 2.70078 1.37934L2.70076 1.37932L2.69907 1.38101L1.60912 2.47096C1.1962 2.88388 0.961423 3.38678 0.912804 3.96716L0.91277 3.96758C0.85591 4.68282 0.988218 5.43801 1.32375 6.34163C1.83841 7.73853 2.61426 9.03346 3.76247 10.4131Z" fill="#EA3B32" stroke="#EA3B32" stroke-width="0.2"/>
</svg>
