<svg width="15" height="15" viewBox="0 0 15 15" fill="none" xmlns="http://www.w3.org/2000/svg">
<g clip-path="url(#clip0_2:1631)">
<path d="M7.5024 3.64868C5.37553 3.64868 3.65366 5.37243 3.65366 7.49743C3.65366 9.6243 5.37741 11.3462 7.5024 11.3462C9.62928 11.3462 11.3512 9.62243 11.3512 7.49743C11.3512 5.37056 9.6274 3.64868 7.5024 3.64868ZM7.5024 9.99555C6.12178 9.99555 5.00428 8.87743 5.00428 7.49743C5.00428 6.11743 6.12241 4.99931 7.5024 4.99931C8.8824 4.99931 10.0005 6.11743 10.0005 7.49743C10.0012 8.87743 8.88303 9.99555 7.5024 9.99555Z" fill="white"/>
<path d="M10.5927 0.0479711C9.21273 -0.0164038 5.7946 -0.0132788 4.41336 0.0479711C3.19961 0.104846 2.12898 0.397971 1.26586 1.2611C-0.176641 2.7036 0.00773359 4.64734 0.00773359 7.49797C0.00773359 10.4155 -0.154766 12.3142 1.26586 13.7348C2.71398 15.1823 4.68585 14.993 7.50273 14.993C10.3927 14.993 11.3902 14.9948 12.4121 14.5992C13.8015 14.0598 14.8502 12.818 14.9527 10.5873C15.0177 9.20672 15.014 5.78922 14.9527 4.40797C14.829 1.77485 13.4158 0.177971 10.5927 0.0479711ZM12.7771 12.7805C11.8315 13.7261 10.5196 13.6417 7.4846 13.6417C4.35961 13.6417 3.10648 13.688 2.19211 12.7711C1.13898 11.723 1.32961 10.0398 1.32961 7.48797C1.32961 4.03484 0.975233 1.54797 4.44086 1.37047C5.23711 1.34235 5.47148 1.33297 7.47585 1.33297L7.50398 1.35172C10.8346 1.35172 13.4477 1.00297 13.6046 4.46797C13.6402 5.25859 13.6483 5.49609 13.6483 7.49734C13.6477 10.5861 13.7065 11.8467 12.7771 12.7805Z" fill="white"/>
<path d="M11.5042 4.39628C12.0009 4.39628 12.4036 3.99362 12.4036 3.49691C12.4036 3.0002 12.0009 2.59753 11.5042 2.59753C11.0075 2.59753 10.6049 3.0002 10.6049 3.49691C10.6049 3.99362 11.0075 4.39628 11.5042 4.39628Z" fill="white"/>
</g>
<defs>
<clipPath id="clip0_2:1631">
<rect width="15" height="15" fill="white"/>
</clipPath>
</defs>
</svg>
