<svg width="26" height="26" viewBox="0 0 26 26" fill="none" xmlns="http://www.w3.org/2000/svg">
<g clip-path="url(#clip0_2:1209)">
<path d="M13.004 6.46448C9.39481 6.46448 6.47284 9.38963 6.47284 12.9957C6.47284 16.6049 9.39799 19.5269 13.004 19.5269C16.6133 19.5269 19.5353 16.6017 19.5353 12.9957C19.5353 9.38645 16.6101 6.46448 13.004 6.46448ZM13.004 17.2349C10.6612 17.2349 8.76481 15.3375 8.76481 12.9957C8.76481 10.6539 10.6622 8.75645 13.004 8.75645C15.3459 8.75645 17.2433 10.6539 17.2433 12.9957C17.2443 15.3375 15.3469 17.2349 13.004 17.2349Z" fill="#EA3B32"/>
<path d="M18.2481 0.353515C15.9063 0.244273 10.1059 0.249576 7.76194 0.353515C5.70225 0.45003 3.88543 0.947454 2.42073 2.41215C-0.0271442 4.86003 0.285734 8.15851 0.285734 12.9959C0.285734 17.9468 0.00997704 21.169 2.42073 23.5797C4.87816 26.0361 8.22437 25.7147 13.0045 25.7147C17.9088 25.7147 19.6015 25.7179 21.3356 25.0465C23.6933 24.1312 25.473 22.0238 25.6469 18.2385C25.7572 15.8956 25.7509 10.0962 25.6469 7.7523C25.4369 3.28397 23.0389 0.574121 18.2481 0.353515ZM21.955 21.9602C20.3503 23.5649 18.1241 23.4217 12.9738 23.4217C7.67073 23.4217 5.54422 23.5002 3.99255 21.9443C2.20543 20.1656 2.52891 17.3094 2.52891 12.979C2.52891 7.11912 1.92755 2.89897 7.80861 2.59776C9.15982 2.55003 9.55755 2.53412 12.9589 2.53412L13.0066 2.56594C18.6586 2.56594 23.093 1.97412 23.3592 7.85412C23.4197 9.19578 23.4334 9.59881 23.4334 12.9949C23.4324 18.2364 23.5321 20.3756 21.955 21.9602Z" fill="#EA3B32"/>
<path d="M19.7951 7.73308C20.638 7.73308 21.3213 7.04978 21.3213 6.20687C21.3213 5.36397 20.638 4.68066 19.7951 4.68066C18.9522 4.68066 18.2689 5.36397 18.2689 6.20687C18.2689 7.04978 18.9522 7.73308 19.7951 7.73308Z" fill="#EA3B32"/>
</g>
<defs>
<clipPath id="clip0_2:1209">
<rect width="25.4545" height="25.4545" fill="white" transform="translate(0.272705 0.272705)"/>
</clipPath>
</defs>
</svg>
