<svg width="24" height="23" viewBox="0 0 24 23" fill="none" xmlns="http://www.w3.org/2000/svg">
<path d="M22.8767 20.4824L18.5408 16.1464C19.8548 14.4262 20.5756 12.3396 20.5758 10.1378C20.5758 7.48435 19.5424 4.98958 17.6659 3.11337C15.7897 1.23716 13.2952 0.203735 10.6415 0.203735C7.9881 0.203735 5.49334 1.23716 3.61712 3.11337C-0.256082 6.9869 -0.256082 13.2893 3.61712 17.1621C5.49334 19.0387 7.9881 20.0721 10.6415 20.0721C12.8433 20.0718 14.9299 19.3511 16.6502 18.037L20.9861 22.373C21.247 22.6341 21.5894 22.7647 21.9314 22.7647C22.2735 22.7647 22.6159 22.6341 22.8767 22.373C23.399 21.851 23.399 21.0043 22.8767 20.4824ZM5.5077 15.2716C2.67706 12.4409 2.67738 7.83492 5.5077 5.00395C6.87896 3.63302 8.70229 2.8777 10.6415 2.8777C12.581 2.8777 14.4041 3.63302 15.7753 5.00395C17.1466 6.3752 17.9019 8.19854 17.9019 10.1378C17.9019 12.0773 17.1466 13.9003 15.7753 15.2716C14.4041 16.6428 12.581 17.3981 10.6415 17.3981C8.70229 17.3981 6.87896 16.6428 5.5077 15.2716Z" fill="white"/>
</svg>
