<svg width="15" height="15" viewBox="0 0 15 15" fill="none" xmlns="http://www.w3.org/2000/svg">
<path d="M7.77075 0C8.32304 0 8.77075 0.447715 8.77075 1V4.931C8.77075 5.48328 9.21847 5.931 9.77075 5.931H13.398C13.9503 5.931 14.398 6.37871 14.398 6.931V7.57825C14.398 8.13053 13.9503 8.57825 13.398 8.57825H9.77075C9.21847 8.57825 8.77075 9.02597 8.77075 9.57825V13.5382C8.77075 14.0905 8.32304 14.5382 7.77075 14.5382H6.87758C6.32529 14.5382 5.87758 14.0905 5.87758 13.5382V9.57825C5.87758 9.02597 5.42987 8.57825 4.87758 8.57825H1.2793C0.727013 8.57825 0.279297 8.13054 0.279297 7.57825V6.931C0.279297 6.37872 0.727012 5.931 1.2793 5.931H4.87758C5.42986 5.931 5.87758 5.48328 5.87758 4.931V1C5.87758 0.447715 6.3253 0 6.87758 0H7.77075Z" fill="#D65E54"/>
</svg>
