<svg width="27" height="24" viewBox="0 0 27 24" fill="none" xmlns="http://www.w3.org/2000/svg">
<path d="M25.5171 8.16235H22.5219L18.026 1.41246C17.8472 1.14433 17.5691 0.958242 17.2531 0.89512C16.937 0.831999 16.6088 0.897018 16.3407 1.07588C16.0725 1.25473 15.8865 1.53278 15.8233 1.84884C15.7602 2.1649 15.8252 2.4931 16.0041 2.76122L19.602 8.16235H7.13021L10.7318 2.76122C10.9106 2.4931 10.9756 2.1649 10.9125 1.84884C10.8494 1.53278 10.6633 1.25473 10.3952 1.07588C10.1271 0.897018 9.79887 0.831999 9.4828 0.89512C9.16674 0.958242 8.8887 1.14433 8.70984 1.41246L4.21032 8.16235H1.2151C0.892836 8.16235 0.58377 8.29036 0.355895 8.51824C0.128019 8.74612 0 9.05518 0 9.37745C0 9.69971 0.128019 10.0088 0.355895 10.2367C0.58377 10.4645 0.892836 10.5925 1.2151 10.5925H2.4302V20.3134C2.4302 21.2802 2.81426 22.2073 3.49789 22.891C4.18151 23.5746 5.10871 23.9587 6.0755 23.9587H20.6567C21.6235 23.9587 22.5507 23.5746 23.2343 22.891C23.918 22.2073 24.302 21.2802 24.302 20.3134V10.5925H25.5171C25.8394 10.5925 26.1484 10.4645 26.3763 10.2367C26.6042 10.0088 26.7322 9.69971 26.7322 9.37745C26.7322 9.05518 26.6042 8.74612 26.3763 8.51824C26.1484 8.29036 25.8394 8.16235 25.5171 8.16235ZM21.8718 20.3134C21.8718 20.6356 21.7438 20.9447 21.5159 21.1726C21.288 21.4004 20.979 21.5285 20.6567 21.5285H6.0755C5.75324 21.5285 5.44417 21.4004 5.2163 21.1726C4.98842 20.9447 4.8604 20.6356 4.8604 20.3134V10.5925H21.8718V20.3134Z" fill="white"/>
<path d="M8.50514 19.7056C8.8274 19.7056 9.13647 19.5776 9.36434 19.3498C9.59222 19.1219 9.72024 18.8128 9.72024 18.4905V13.6301C9.72024 13.3079 9.59222 12.9988 9.36434 12.7709C9.13647 12.5431 8.8274 12.415 8.50514 12.415C8.18287 12.415 7.87381 12.5431 7.64593 12.7709C7.41806 12.9988 7.29004 13.3079 7.29004 13.6301V18.4905C7.29004 18.8128 7.41806 19.1219 7.64593 19.3498C7.87381 19.5776 8.18287 19.7056 8.50514 19.7056Z" fill="white"/>
<path d="M13.3655 19.7056C13.6878 19.7056 13.9968 19.5776 14.2247 19.3498C14.4526 19.1219 14.5806 18.8128 14.5806 18.4905V13.6301C14.5806 13.3079 14.4526 12.9988 14.2247 12.7709C13.9968 12.5431 13.6878 12.415 13.3655 12.415C13.0432 12.415 12.7342 12.5431 12.5063 12.7709C12.2784 12.9988 12.1504 13.3079 12.1504 13.6301V18.4905C12.1504 18.8128 12.2784 19.1219 12.5063 19.3498C12.7342 19.5776 13.0432 19.7056 13.3655 19.7056Z" fill="white"/>
<path d="M18.2258 19.7056C18.5481 19.7056 18.8572 19.5776 19.0851 19.3498C19.3129 19.1219 19.441 18.8128 19.441 18.4905V13.6301C19.441 13.3079 19.3129 12.9988 19.0851 12.7709C18.8572 12.5431 18.5481 12.415 18.2258 12.415C17.9036 12.415 17.5945 12.5431 17.3666 12.7709C17.1388 12.9988 17.0107 13.3079 17.0107 13.6301V18.4905C17.0107 18.8128 17.1388 19.1219 17.3666 19.3498C17.5945 19.5776 17.9036 19.7056 18.2258 19.7056Z" fill="white"/>
</svg>
