<svg width="20" height="20" viewBox="0 0 20 20" fill="none" xmlns="http://www.w3.org/2000/svg">
<path d="M17.7364 16.1131C18.1932 15.6395 18.1969 15.1546 17.7477 14.707L17.7364 16.1131ZM17.7364 16.1131C17.5792 16.281 17.4144 16.4414 17.2385 16.6092L17.7364 16.1131ZM17.6771 14.7778L15.4195 12.5326L15.4169 12.5299L15.4169 12.5298C15.2781 12.3809 15.0707 12.2297 14.8274 12.2297C14.6298 12.2297 14.4179 12.3282 14.2128 12.5325L12.8126 13.9275C12.747 13.9928 12.527 14.2102 12.1842 14.2102C12.047 14.2102 11.9118 14.1759 11.7759 14.1062C11.7757 14.1061 11.7755 14.1061 11.7753 14.106L11.821 14.017C11.8135 14.0133 11.807 14.0095 11.8004 14.0058C11.7939 14.0021 11.7873 13.9983 11.7798 13.9946L17.6771 14.7778ZM17.6771 14.7778C17.8891 14.9891 17.9834 15.1979 17.9818 15.3995C17.9802 15.6019 17.8818 15.8183 17.6644 16.0437L17.6634 16.0448C17.5082 16.2105 17.3451 16.3693 17.1695 16.5368L17.1689 16.5373C17.1543 16.5515 17.1397 16.5656 17.125 16.5798C16.8776 16.8191 16.6177 17.0704 16.3811 17.3523C15.9709 17.792 15.4855 17.9974 14.8498 17.9974C14.7896 17.9974 14.725 17.9938 14.6611 17.9901C13.4533 17.913 12.326 17.4429 11.4709 17.0374L17.6771 14.7778ZM4.57088 13.0293L4.57104 13.0295L17.1374 18.0191L17.208 18.0899L17.2083 18.0896C17.2085 18.0894 17.2088 18.0891 17.2091 18.0888C17.2127 18.0853 17.224 18.0739 17.234 18.0586C17.4314 17.8221 17.6542 17.6069 17.8922 17.3768C17.9095 17.3602 17.9268 17.3435 17.9442 17.3266C18.1205 17.1584 18.3013 16.9821 18.4749 16.8017C18.8885 16.3722 19.101 15.8782 19.1 15.3814C19.099 14.8844 18.8843 14.3965 18.4659 13.9797L16.2172 11.7395C16.2169 11.7392 16.2167 11.739 16.2165 11.7388C15.8188 11.3274 15.3374 11.1047 14.8274 11.1047C14.3172 11.1047 13.8324 11.3275 13.424 11.7344L12.1372 13.0163C12.0326 12.9589 11.9274 12.9065 11.8293 12.8576L11.8281 12.857C11.6783 12.7824 11.544 12.7135 11.4253 12.6383L11.4252 12.6382C10.2153 11.8729 9.11504 10.8737 8.06133 9.58665C7.55004 8.94186 7.20324 8.40005 6.95845 7.85491C7.29273 7.55045 7.60666 7.23393 7.90885 6.9258L7.90918 6.92546C8.02083 6.81052 8.13631 6.69548 8.25247 6.57975C8.67131 6.16249 8.90339 5.67201 8.90339 5.16618C8.90339 4.66077 8.67541 4.17015 8.2523 3.75244C8.25225 3.75239 8.25219 3.75234 8.25214 3.75229L7.13678 2.64113C7.00982 2.51466 6.88988 2.39165 6.76609 2.2647L6.75595 2.25429C6.75594 2.25428 6.75593 2.25427 6.75592 2.25426C6.509 2.00083 6.24948 1.7385 5.99316 1.50186C5.59164 1.11006 5.11474 0.9 4.60644 0.9C4.10128 0.9 3.62076 1.11052 3.20473 1.50561L3.20471 1.50559L3.20302 1.50727L1.80279 2.90222C1.277 3.42602 0.978262 4.0635 0.916352 4.79974L0.916318 4.80017C0.843683 5.71039 1.01253 6.67278 1.44267 7.8268C2.10255 9.61107 3.09745 11.2656 4.57088 13.0293Z" fill="#EA3B32" stroke="#EA3B32" stroke-width="0.2"/>
</svg>
