<svg width="92" height="143" viewBox="0 0 92 143" fill="none" xmlns="http://www.w3.org/2000/svg">
<path fill-rule="evenodd" clip-rule="evenodd" d="M47.4743 0C51.2322 1.13769 53.9879 4.67717 53.9879 8.7855C53.9879 13.3995 50.5433 17.2549 46.0964 17.887C47.7876 18.3927 48.9774 19.9727 48.9774 21.8057C48.9774 24.018 47.1612 25.8508 44.9692 25.8508C42.7771 25.8508 40.9608 24.018 40.9608 21.8057C40.9608 19.9727 42.1507 18.4558 43.7792 17.9502C39.8335 17.4445 36.7018 14.4739 35.9504 10.5552C37.2656 13.1466 40.0213 14.9796 43.0902 14.9796C47.5369 14.9796 51.1695 11.3137 51.1695 6.82613C51.1695 3.98192 49.6664 1.45371 47.4743 0ZM44.9692 31.9818L23.2364 45.6972C18.1633 49.1734 14.7186 55.1148 14.7186 60.2975C14.7186 65.4171 14.7186 65.5435 14.7186 70.7264C14.7812 75.7195 17.1612 78.311 21.9212 79.1327H8.76872C4.38459 79.1327 2.19252 74.7715 2.00464 71.4849V63.6474C2.25516 54.1667 8.07979 48.6678 15.3449 44.3066L44.9064 26.6092L74.4681 44.3066C81.7958 48.6678 87.5579 54.2298 87.8084 63.5841V71.4216C87.6832 74.7082 85.4284 79.0062 81.0443 79.0694H67.8918C72.6518 78.311 75.0318 75.6563 75.0945 70.6632C75.0945 65.5435 75.0945 65.4172 75.0945 60.2344C75.0945 55.1148 71.6497 49.1103 66.5766 45.6341L44.9692 31.9818Z" fill="#EA3B32"/>
<path fill-rule="evenodd" clip-rule="evenodd" d="M80.4175 81.2816H69.7077C67.3903 81.2816 65.1984 80.207 65.261 76.7308V48.6045L58.1838 44.1169V78.7532C58.1211 80.3966 57.1816 81.4079 55.3654 81.471C53.549 81.471 52.547 80.2703 52.4843 78.5636C52.4843 65.9859 52.4843 53.1553 52.4843 40.5776L45.0939 35.9004V76.6675C45.0939 79.7014 43.5908 81.0287 41.0856 81.4079H5.44885C3.0689 81.2183 1.12735 78.6269 0 75.6562C0 80.6495 0 83.4304 0 88.4237C0.0626305 93.6697 3.63257 96.7034 9.20669 96.7667C21.2944 96.7667 31.4405 96.7667 43.5282 96.7667C46.2839 96.7667 48.1002 94.8073 49.1023 92.1528C50.167 94.681 52.2964 96.7034 55.428 96.7667C58.1838 96.7034 60.6262 95.1866 61.8162 91.9632C62.881 94.6177 64.1962 96.7034 67.7662 96.7667C72.3382 96.7667 75.7203 96.7667 80.4175 96.7667V96.7034C80.5428 96.7034 80.668 96.7034 80.7933 96.7034C86.3048 96.6404 89.8748 93.6064 90 88.3604C90 83.3673 90 80.523 90 75.5931C88.9352 78.5005 86.9312 81.1551 84.5512 81.3447L80.4175 81.2816Z" fill="#EA3B32"/>
<path d="M1.0752 122V121.693L2.6112 120.925L3.0144 110.403L1.3632 109.635V109.328H5.184L9.4848 119.254L13.7664 109.328H17.4336V109.635L15.8016 110.346L16.128 120.925L17.5104 121.693V122H12.768V121.693L14.208 120.944L14.016 111.555L9.4848 122.096H8.5632L4.0704 111.67L3.8208 120.944L5.4144 121.693V122H1.0752ZM19.7333 122V121.693L21.2885 120.925V110.403L19.7333 109.635V109.328H29.3717V112.63H29.0645L27.8165 110.384H23.3045V114.934H26.4917L27.4709 113.322H27.7781V117.565H27.4709L26.4917 115.99H23.3045V120.944H28.3349L29.6021 118.41H29.9093V122H19.7333ZM33.0423 109.635V109.328H43.9287V109.635L42.3735 110.403V120.944H44.1975V125.226H43.8903L42.3159 122H33.5607L31.9863 125.226H31.6791V120.944H33.1383C33.5095 120.022 33.7975 119.075 34.0023 118.102C34.2199 117.13 34.3735 116.086 34.4631 114.973C34.5527 113.846 34.5975 112.598 34.5975 111.229V110.403L33.0423 109.635ZM40.3767 120.944V110.384H35.7687V111.229C35.7687 112.611 35.7239 113.866 35.6343 114.992C35.5575 116.106 35.4167 117.149 35.2119 118.122C35.0199 119.082 34.7575 120.022 34.4247 120.944H40.3767ZM46.3395 122V121.693L47.8947 120.925V110.403L46.3395 109.635V109.328H51.4275V109.635L49.9107 110.403V118.851L56.3427 111.229V110.403L54.8067 109.635V109.328H59.8947V109.635L58.3395 110.403V120.925L59.8947 121.693V122H54.8067V121.693L56.3427 120.925V112.63L49.9107 120.253V120.925L51.4275 121.693V122H46.3395ZM62.202 122V121.693L63.7572 120.925V110.403L62.202 109.635V109.328H67.29V109.635L65.7732 110.403V114.934H72.0132V110.403L70.4772 109.635V109.328H75.5652V109.635L74.01 110.403V120.925L75.5652 121.693V122H70.4772V121.693L72.0132 120.925V115.99H65.7732V120.925L67.29 121.693V122H62.202ZM77.301 122V121.693L78.5106 121.059L83.445 109.232H84.501L89.3778 121.002L90.6642 121.693V122H85.5954V121.693L87.285 121.021L85.8642 117.565H81.237L79.8354 121.04L81.4482 121.693V122H77.301ZM81.6786 116.509H85.4418L83.5602 111.882L81.6786 116.509Z" fill="#EA3B32"/>
<path d="M6.6683 135.687L6.7229 134.959H6.6865L6.2952 135.705L3.2194 140H2.7735V133.63H3.5288V137.998L3.4651 138.717H3.5015L3.9019 137.971L6.9777 133.63H7.4236V140H6.6683V135.687ZM9.45894 136.988V136.351H9.60454C9.65914 136.351 9.72588 136.351 9.80474 136.351C9.88361 136.351 9.96248 136.348 10.0413 136.342C10.1263 136.336 10.2051 136.333 10.2779 136.333C10.3568 136.327 10.4205 136.318 10.469 136.305C10.6268 136.281 10.7754 136.242 10.9149 136.187C11.0545 136.126 11.1758 136.051 11.2789 135.96C11.3821 135.869 11.464 135.762 11.5246 135.641C11.5853 135.52 11.6156 135.386 11.6156 135.241C11.6156 135.04 11.5823 134.874 11.5155 134.74C11.4488 134.607 11.3548 134.501 11.2334 134.422C11.1182 134.337 10.9817 134.279 10.8239 134.249C10.6723 134.212 10.5085 134.194 10.3325 134.194C10.0049 134.194 9.72588 134.218 9.49534 134.267C9.26481 134.309 9.07978 134.364 8.94024 134.431L8.74004 133.83C8.86138 133.763 9.07978 133.697 9.39524 133.63C9.71071 133.557 10.0656 133.521 10.4599 133.521C10.7026 133.521 10.9392 133.548 11.1697 133.603C11.4063 133.651 11.6156 133.736 11.7976 133.857C11.9857 133.973 12.1343 134.134 12.2435 134.34C12.3588 134.54 12.4164 134.789 12.4164 135.086C12.4164 135.389 12.3163 135.681 12.1161 135.96C11.9159 136.233 11.6156 136.43 11.2152 136.551V136.587C11.646 136.648 11.9857 136.809 12.2344 137.07C12.4832 137.331 12.6075 137.679 12.6075 138.116C12.6075 138.462 12.5378 138.762 12.3982 139.017C12.2648 139.266 12.0858 139.472 11.8613 139.636C11.6429 139.8 11.3881 139.921 11.0969 140C10.8118 140.073 10.5206 140.109 10.2233 140.109C9.82294 140.109 9.49231 140.085 9.23144 140.036C8.97664 139.994 8.76431 139.939 8.59444 139.873L8.78554 139.19C8.92508 139.257 9.11921 139.314 9.36794 139.363C9.62274 139.412 9.92911 139.436 10.287 139.436C10.4751 139.436 10.6601 139.412 10.8421 139.363C11.0241 139.308 11.1849 139.23 11.3244 139.126C11.47 139.017 11.5853 138.884 11.6702 138.726C11.7612 138.568 11.8067 138.38 11.8067 138.162C11.8067 137.78 11.6733 137.501 11.4063 137.325C11.1394 137.143 10.7906 137.036 10.3598 137.006C10.287 137 10.2173 136.997 10.1505 136.997C10.0899 136.991 10.0262 136.988 9.95944 136.988H9.45894ZM18.9504 141.174H18.4317L18.2952 140H13.8271L13.6906 141.174H13.1628V139.327H13.8089C13.8574 139.26 13.9302 139.105 14.0273 138.862C14.1304 138.614 14.2305 138.262 14.3276 137.807C14.4307 137.346 14.5217 136.773 14.6006 136.087C14.6795 135.395 14.7189 134.576 14.7189 133.63H18.1223V139.327H18.9504V141.174ZM17.367 139.327V134.303H15.4287C15.4105 134.971 15.3741 135.571 15.3195 136.105C15.271 136.639 15.2103 137.112 15.1375 137.525C15.0647 137.931 14.9828 138.283 14.8918 138.58C14.8008 138.878 14.7068 139.126 14.6097 139.327H17.367ZM23.0085 138.235H20.6607L20.0237 140H19.2775L21.689 133.53H22.0348L24.4554 140H23.6637L23.0085 138.235ZM20.9064 137.579H22.781L22.0712 135.641L21.8437 134.676H21.8346L21.6071 135.659L20.9064 137.579ZM28.8014 134.303H26.8176V140H26.0623V134.303H24.0784V133.63H28.8014V134.303ZM29.7358 133.63H33.2029V134.303H30.4911V136.387H32.9754V137.061H30.4911V139.327H33.2484V140H29.7358V133.63ZM37.9907 134.303H36.0888C36.0281 135.517 35.9462 136.527 35.8431 137.334C35.746 138.134 35.5974 138.759 35.3972 139.208C35.2637 139.499 35.106 139.712 34.924 139.845C34.742 139.979 34.5448 140.046 34.3325 140.046C34.2233 140.046 34.1293 140.036 34.0504 140.018C33.9715 140.006 33.8957 139.985 33.8229 139.954L33.923 139.299C33.9837 139.317 34.0474 139.327 34.1141 139.327C34.2172 139.327 34.3173 139.293 34.4144 139.226C34.5175 139.16 34.6176 139.035 34.7147 138.853C34.7996 138.69 34.8785 138.471 34.9513 138.198C35.0302 137.925 35.0969 137.579 35.1515 137.161C35.2122 136.742 35.2607 136.245 35.2971 135.668C35.3335 135.086 35.3608 134.407 35.379 133.63H38.746V140H37.9907V134.303ZM40.2932 133.63H41.0485V136.105C41.0789 136.099 41.1304 136.093 41.2032 136.087C41.276 136.075 41.3549 136.066 41.4398 136.06C41.5248 136.054 41.6127 136.048 41.7037 136.041C41.7947 136.035 41.8766 136.032 41.9494 136.032C42.2406 136.032 42.5227 136.063 42.7957 136.123C43.0748 136.178 43.3205 136.278 43.5328 136.424C43.7512 136.569 43.9272 136.766 44.0606 137.015C44.1941 137.258 44.2608 137.567 44.2608 137.943C44.2608 138.307 44.1971 138.623 44.0697 138.89C43.9423 139.157 43.7664 139.378 43.5419 139.554C43.3175 139.73 43.0536 139.86 42.7502 139.945C42.453 140.03 42.1284 140.073 41.7765 140.073C41.6916 140.073 41.5885 140.07 41.4671 140.064C41.3458 140.064 41.2154 140.058 41.0758 140.046C40.9424 140.039 40.8059 140.027 40.6663 140.009C40.5329 139.991 40.4085 139.967 40.2932 139.936V133.63ZM41.8766 139.418C42.095 139.418 42.2983 139.39 42.4863 139.336C42.6805 139.275 42.8503 139.187 42.9959 139.072C43.1415 138.95 43.2538 138.802 43.3326 138.626C43.4176 138.444 43.46 138.235 43.46 137.998C43.46 137.743 43.4145 137.531 43.3235 137.361C43.2325 137.191 43.1112 137.058 42.9595 136.961C42.8139 136.857 42.6441 136.788 42.4499 136.751C42.2558 136.709 42.0556 136.688 41.8493 136.688C41.7947 136.688 41.728 136.691 41.6491 136.697C41.5703 136.703 41.4914 136.709 41.4125 136.715C41.3337 136.721 41.2609 136.73 41.1941 136.742C41.1274 136.754 41.0789 136.763 41.0485 136.769V139.363C41.1335 139.381 41.2548 139.396 41.4125 139.408C41.5703 139.415 41.725 139.418 41.8766 139.418ZM49.2755 139.736C49.0935 139.876 48.863 139.973 48.5839 140.027C48.3048 140.082 48.0076 140.109 47.6921 140.109C47.3099 140.109 46.952 140.046 46.6183 139.918C46.2846 139.785 45.9934 139.584 45.7447 139.317C45.496 139.051 45.2988 138.711 45.1532 138.298C45.0076 137.88 44.9348 137.385 44.9348 136.815C44.9348 136.22 45.0137 135.717 45.1714 135.304C45.3352 134.886 45.5475 134.546 45.8084 134.285C46.0753 134.018 46.3726 133.824 46.7002 133.703C47.0278 133.581 47.3615 133.521 47.7012 133.521C48.0652 133.521 48.3625 133.542 48.593 133.584C48.8235 133.621 49.0207 133.672 49.1845 133.739L49.0025 134.403C48.7113 134.264 48.2957 134.194 47.7558 134.194C47.5071 134.194 47.2614 134.24 47.0187 134.331C46.776 134.422 46.5576 134.57 46.3635 134.777C46.1754 134.983 46.0238 135.253 45.9085 135.586C45.7932 135.92 45.7356 136.33 45.7356 136.815C45.7356 137.252 45.7902 137.634 45.8994 137.962C46.0086 138.289 46.1572 138.562 46.3453 138.781C46.5394 138.999 46.7639 139.163 47.0187 139.272C47.2796 139.381 47.5617 139.436 47.865 139.436C48.138 139.436 48.3746 139.408 48.5748 139.354C48.7811 139.299 48.954 139.23 49.0935 139.145L49.2755 139.736ZM51.5804 137.052H51.1527V140H50.3974V133.63H51.1527V136.597L51.5622 136.469L53.7007 133.63H54.5743L52.4449 136.369L52.0627 136.669L52.5268 137.033L54.8564 140H53.9009L51.5804 137.052ZM59.8464 135.687L59.901 134.959H59.8646L59.4733 135.705L56.3975 140H55.9516V133.63H56.7069V137.998L56.6432 138.717H56.6796L57.08 137.971L60.1558 133.63H60.6017V140H59.8464V135.687ZM66.0405 135.687L66.0951 134.959H66.0587L65.6674 135.705L62.5916 140H62.1457V133.63H62.901V137.998L62.8373 138.717H62.8737L63.2741 137.971L66.3499 133.63H66.7958V140H66.0405V135.687ZM63.72 132.083C63.7442 132.307 63.8292 132.48 63.9748 132.602C64.1204 132.723 64.3145 132.784 64.5572 132.784C64.7998 132.784 64.9909 132.723 65.1305 132.602C65.2761 132.48 65.364 132.31 65.3944 132.092L66.0405 132.247C65.9737 132.574 65.819 132.835 65.5764 133.029C65.3398 133.217 64.997 133.311 64.5481 133.311C64.1173 133.311 63.7624 133.23 63.4834 133.066C63.2104 132.896 63.0496 132.629 63.0011 132.265L63.72 132.083ZM75.5766 141.174H75.0579L74.9214 140H70.4533L70.3168 141.174H69.789V139.327H70.4351C70.4836 139.26 70.5564 139.105 70.6535 138.862C70.7566 138.614 70.8567 138.262 70.9538 137.807C71.0569 137.346 71.1479 136.773 71.2268 136.087C71.3056 135.395 71.3451 134.576 71.3451 133.63H74.7485V139.327H75.5766V141.174ZM73.9932 139.327V134.303H72.0549C72.0367 134.971 72.0003 135.571 71.9457 136.105C71.8971 136.639 71.8365 137.112 71.7637 137.525C71.6909 137.931 71.609 138.283 71.518 138.58C71.427 138.878 71.3329 139.126 71.2359 139.327H73.9932ZM76.1272 136.815C76.1272 135.753 76.3517 134.94 76.8006 134.376C77.2495 133.806 77.8896 133.521 78.7207 133.521C79.1696 133.521 79.5579 133.6 79.8855 133.757C80.2131 133.915 80.4831 134.14 80.6954 134.431C80.9138 134.716 81.0746 135.062 81.1777 135.468C81.2808 135.869 81.3324 136.318 81.3324 136.815C81.3324 137.877 81.1049 138.693 80.6499 139.263C80.201 139.827 79.5579 140.109 78.7207 140.109C78.2778 140.109 77.8926 140.03 77.565 139.873C77.2435 139.715 76.9735 139.493 76.7551 139.208C76.5428 138.917 76.385 138.571 76.2819 138.171C76.1788 137.764 76.1272 137.312 76.1272 136.815ZM76.928 136.815C76.928 137.167 76.9614 137.501 77.0281 137.816C77.1009 138.131 77.2101 138.411 77.3557 138.653C77.5013 138.89 77.6863 139.081 77.9108 139.226C78.1413 139.366 78.4113 139.436 78.7207 139.436C79.2849 139.436 79.7278 139.223 80.0493 138.799C80.3708 138.368 80.5316 137.707 80.5316 136.815C80.5316 136.469 80.4952 136.139 80.4224 135.823C80.3557 135.502 80.2465 135.222 80.0948 134.986C79.9492 134.743 79.7611 134.552 79.5306 134.413C79.3061 134.267 79.0362 134.194 78.7207 134.194C78.1626 134.194 77.7227 134.41 77.4012 134.84C77.0857 135.265 76.928 135.923 76.928 136.815ZM87.5076 135.723L87.5986 134.767H87.5531L87.2073 135.641L85.5511 138.517H85.3236L83.5673 135.632L83.2397 134.767H83.1942L83.3216 135.714V140H82.6118V133.63H83.176L85.1689 136.888L85.4692 137.598H85.4874L85.7695 136.87L87.6714 133.63H88.2629V140H87.5076V135.723Z" fill="#696969"/>
</svg>
