<svg width="26" height="16" viewBox="0 0 26 16" fill="none" xmlns="http://www.w3.org/2000/svg">
<path d="M21.3954 9.12147C20.9839 8.58692 21.1016 8.3491 21.3954 7.87128C21.4007 7.86583 24.798 3.03747 25.148 1.40001L25.1501 1.39892C25.3241 0.802193 25.1501 0.363647 24.309 0.363647H21.5259C20.8174 0.363647 20.4907 0.740011 20.3157 1.1611C20.3157 1.1611 18.8987 4.64983 16.8941 6.91128C16.2471 7.56474 15.948 7.77419 15.5948 7.77419C15.4208 7.77419 15.1504 7.56474 15.1504 6.96801V1.39892C15.1504 0.683284 14.952 0.363647 14.3655 0.363647H9.98928C9.54488 0.363647 9.28078 0.697466 9.28078 1.00837C9.28078 1.68692 10.2831 1.84292 10.387 3.75201V7.89419C10.387 8.80183 10.2269 8.96874 9.87155 8.96874C8.92546 8.96874 6.62917 5.46583 5.26836 1.45674C4.99366 0.67892 4.72531 0.364738 4.0115 0.364738H1.22731C0.432893 0.364738 0.272736 0.741102 0.272736 1.16219C0.272736 1.90619 1.21883 5.60547 4.67228 10.4927C6.97388 13.8287 10.2152 15.6364 13.1638 15.6364C14.9361 15.6364 15.1525 15.2349 15.1525 14.5444C15.1525 11.3567 14.9923 11.0556 15.8801 11.0556C16.2916 11.0556 17.0001 11.2651 18.6547 12.8742C20.5459 14.7822 20.8566 15.6364 21.9152 15.6364H24.6983C25.4916 15.6364 25.8936 15.2349 25.6624 14.4429C25.1331 12.7771 21.5567 9.35056 21.3954 9.12147Z" fill="#EA3B32"/>
</svg>
