<svg width="23" height="23" viewBox="0 0 23 23" fill="none" xmlns="http://www.w3.org/2000/svg">
<g clip-path="url(#clip0_550_2690)">
<path d="M11.4708 6.02271C8.44596 6.02271 5.99707 8.47426 5.99707 11.4965C5.99707 14.5214 8.44862 16.9703 11.4708 16.9703C14.4957 16.9703 16.9446 14.5187 16.9446 11.4965C16.9446 8.47159 14.4931 6.02271 11.4708 6.02271ZM11.4708 15.0494C9.50729 15.0494 7.91796 13.4591 7.91796 11.4965C7.91796 9.53381 9.50818 7.94359 11.4708 7.94359C13.4335 7.94359 15.0237 9.53381 15.0237 11.4965C15.0246 13.4591 13.4344 15.0494 11.4708 15.0494Z" fill="#D65E54"/>
<path d="M15.8659 0.901727C13.9032 0.810172 9.04187 0.814616 7.07742 0.901727C5.3512 0.982616 3.82854 1.3995 2.60098 2.62706C0.549428 4.67861 0.81165 7.44306 0.81165 11.4973C0.81165 15.6466 0.580539 18.3471 2.60098 20.3675C4.66054 22.4262 7.46498 22.1568 11.4712 22.1568C15.5814 22.1568 17.0001 22.1595 18.4534 21.5968C20.4294 20.8297 21.921 19.0635 22.0667 15.8911C22.1592 13.9275 22.1539 9.06706 22.0667 7.10261C21.8907 3.35773 19.881 1.08662 15.8659 0.901727ZM18.9725 19.0102C17.6276 20.3551 15.7619 20.2351 11.4454 20.2351C7.00098 20.2351 5.21876 20.3008 3.91831 18.9968C2.42054 17.5062 2.69165 15.1124 2.69165 11.4831C2.69165 6.57195 2.18765 3.03506 7.11654 2.78262C8.24898 2.74262 8.58231 2.72928 11.433 2.72928L11.473 2.75595C16.2099 2.75595 19.9263 2.25995 20.1494 7.18795C20.2001 8.31239 20.2116 8.65017 20.2116 11.4964C20.2107 15.8893 20.2943 17.6822 18.9725 19.0102Z" fill="#D65E54"/>
<path d="M17.1619 7.08605C17.8684 7.08605 18.441 6.51337 18.441 5.80694C18.441 5.10051 17.8684 4.52783 17.1619 4.52783C16.4555 4.52783 15.8828 5.10051 15.8828 5.80694C15.8828 6.51337 16.4555 7.08605 17.1619 7.08605Z" fill="#D65E54"/>
</g>
<defs>
<clipPath id="clip0_550_2690">
<rect width="21.3333" height="21.3333" fill="white" transform="translate(0.800781 0.833496)"/>
</clipPath>
</defs>
</svg>
