<svg width="441" height="187" viewBox="0 0 441 187" fill="none" xmlns="http://www.w3.org/2000/svg">
<mask id="mask0_647_1406" style="mask-type:alpha" maskUnits="userSpaceOnUse" x="0" y="0" width="441" height="187">
<rect y="0.0151367" width="441" height="186.916" rx="12" fill="#F0E4F4"/>
</mask>
<g mask="url(#mask0_647_1406)">
<path d="M18.1982 -30.0515C6.68835 -30.0515 -2.6748 -20.6884 -2.6748 -9.17853C-2.6748 2.3313 6.68789 11.6945 18.1982 11.6945C29.708 11.6945 39.0712 2.3313 39.0712 -9.17853C39.0707 -20.6884 29.7075 -30.0515 18.1982 -30.0515Z" fill="#D7CDDB" fill-opacity="0.12"/>
<path d="M87.9784 69.3381L18.4023 27.5926C14.1293 25.0261 8.76916 24.9273 4.37841 27.4228C0.0298691 29.8756 -2.67434 34.5164 -2.67434 39.5241V95.1853H-2.6748C-2.6748 98.9021 -1.22761 102.394 1.40192 105.024L25.1554 128.778V178.677C25.1554 186.348 31.3996 192.592 39.0707 192.592C46.7417 192.592 52.986 186.348 52.986 178.677V123.016C52.986 119.299 51.5388 115.806 48.9093 113.177L25.1554 89.4235V64.1004L73.6549 93.201C80.3848 97.2346 88.9112 94.7971 92.7477 88.4378C96.6746 81.8698 94.6007 73.297 87.9784 69.3381Z" fill="#D7CDDB" fill-opacity="0.12"/>
<path d="M-2.67359 120.624V132.718L-28.1665 170.958C-32.4528 177.395 -30.6675 186.014 -24.3138 190.254C-17.9364 194.5 -9.29774 192.82 -5.01044 186.395L11.2422 162.018V134.539L-2.67359 120.624Z" fill="#D7CDDB" fill-opacity="0.12"/>
<path d="M101.69 136.931H186.109C189.302 136.931 192.081 134.757 192.856 131.659L206.771 75.9978C207.294 73.9189 206.825 71.717 205.507 70.0323C204.189 68.3407 202.164 67.3555 200.024 67.3555H104.774C109.665 75.8234 110.066 86.5874 104.693 95.5799C101.116 101.504 95.4168 105.707 88.956 107.716L93.2382 124.84C85.9363 128.094 80.8169 135.392 80.8169 143.889C80.8169 153.511 87.3933 161.551 96.2643 163.957C95.2953 166.361 94.7322 168.972 94.7322 171.719C94.7322 183.229 104.095 192.592 115.605 192.592C127.115 192.592 136.478 183.229 136.478 171.719C136.478 169.269 135.976 166.902 135.197 164.715H152.603C151.823 166.902 151.321 169.269 151.321 171.719C151.321 183.229 160.684 192.592 172.194 192.592C183.704 192.592 193.067 183.229 193.067 171.719C193.067 160.21 183.704 150.846 172.194 150.846H101.69C97.8511 150.846 94.7322 147.728 94.7322 143.889C94.7322 140.05 97.8511 136.931 101.69 136.931ZM172.193 164.761C176.032 164.761 179.151 167.88 179.151 171.719C179.151 175.558 176.032 178.677 172.193 178.677C168.354 178.677 165.236 175.558 165.236 171.719C165.236 167.88 168.354 164.761 172.193 164.761ZM115.605 164.761C119.444 164.761 122.563 167.88 122.563 171.719C122.563 175.558 119.444 178.677 115.605 178.677C111.766 178.677 108.648 175.558 108.648 171.719C108.648 167.88 111.766 164.761 115.605 164.761Z" fill="#D7CDDB" fill-opacity="0.12"/>
</g>
</svg>
