<svg width="18" height="23" viewBox="0 0 18 23" fill="none" xmlns="http://www.w3.org/2000/svg">
<path d="M17.1059 2.06102H12.4438L12.0786 1.28405C12.0012 1.11795 11.882 0.978221 11.7345 0.880596C11.5869 0.782971 11.4168 0.73132 11.2433 0.731453H6.80261C6.62948 0.730741 6.45967 0.7822 6.31262 0.879933C6.16558 0.977667 6.04725 1.11772 5.9712 1.28405L5.606 2.06102H0.943882C0.779019 2.06102 0.620908 2.13106 0.504333 2.25573C0.387757 2.3804 0.322266 2.54949 0.322266 2.7258L0.322266 4.05537C0.322266 4.23168 0.387757 4.40077 0.504333 4.52544C0.620908 4.65011 0.779019 4.72015 0.943882 4.72015H17.1059C17.2708 4.72015 17.4289 4.65011 17.5454 4.52544C17.662 4.40077 17.7275 4.23168 17.7275 4.05537V2.7258C17.7275 2.54949 17.662 2.3804 17.5454 2.25573C17.4289 2.13106 17.2708 2.06102 17.1059 2.06102ZM2.38914 20.1348C2.41879 20.6411 2.62775 21.1164 2.97348 21.4637C3.31921 21.8111 3.77573 22.0045 4.2501 22.0045H13.7997C14.274 22.0045 14.7306 21.8111 15.0763 21.4637C15.422 21.1164 15.631 20.6411 15.6606 20.1348L16.4843 6.04972H1.5655L2.38914 20.1348Z" fill="#A4A4A4"/>
</svg>
