<svg width="18" height="18" viewBox="0 0 18 18" fill="none" xmlns="http://www.w3.org/2000/svg">
<path d="M9.88778 0.196289C10.4401 0.196289 10.8878 0.644004 10.8878 1.19629V6.33244C10.8878 6.88473 11.3355 7.33244 11.8878 7.33244H16.6584C17.2107 7.33244 17.6584 7.78016 17.6584 8.33244V9.5176C17.6584 10.0699 17.2107 10.5176 16.6584 10.5176H11.8878C11.3355 10.5176 10.8878 10.9653 10.8878 11.5176V16.6886C10.8878 17.2408 10.4401 17.6886 9.88778 17.6886H8.40673C7.85444 17.6886 7.40673 17.2408 7.40673 16.6886V11.5176C7.40673 10.9653 6.95901 10.5176 6.40673 10.5176H1.6709C1.11861 10.5176 0.670898 10.0699 0.670898 9.5176V8.33244C0.670898 7.78016 1.11861 7.33244 1.6709 7.33244H6.40673C6.95901 7.33244 7.40673 6.88473 7.40673 6.33244V1.19629C7.40673 0.644004 7.85444 0.196289 8.40673 0.196289H9.88778Z" fill="#D65E54"/>
</svg>
